<svg preserveAspectRatio="none" width="100%" height="100%" overflow="visible" style="display: block;" viewBox="0 0 16 16" fill="none" xmlns="http://www.w3.org/2000/svg">
<g id="Details Icon">
<path id="Icon" fill-rule="evenodd" clip-rule="evenodd" d="M14.4 8C14.4 11.5346 11.5346 14.4 8 14.4C4.46538 14.4 1.6 11.5346 1.6 8C1.6 4.46538 4.46538 1.6 8 1.6C11.5346 1.6 14.4 4.46538 14.4 8ZM8.8 4.8C8.8 5.24183 8.44183 5.6 8 5.6C7.55817 5.6 7.2 5.24183 7.2 4.8C7.2 4.35817 7.55817 4 8 4C8.44183 4 8.8 4.35817 8.8 4.8ZM7.2 7.2C6.75817 7.2 6.4 7.55817 6.4 8C6.4 8.44183 6.75817 8.8 7.2 8.8V11.2C7.2 11.6418 7.55817 12 8 12H8.8C9.24183 12 9.6 11.6418 9.6 11.2C9.6 10.7582 9.24183 10.4 8.8 10.4V8C8.8 7.55817 8.44183 7.2 8 7.2H7.2Z" fill="var(--fill-0, #10356B)"/>
</g>
</svg>
